<svg id="svg" version="1.1" width="35" height="35.85628742514973" viewBox="0 0 400 471.85628742514973" xmlns="http://www.w3.org/2000/svg" xmlns:xlink="http://www.w3.org/1999/xlink" ><g id="svgg"><path id="path0" d="M284.000 90.400 L 284.000 180.800 235.800 180.800 L 187.600 180.800 187.600 239.400 L 187.600 298.000 235.800 298.000 L 284.000 298.000 284.000 384.800 L 284.000 471.600 342.000 471.600 L 400.000 471.600 400.000 235.800 L 400.000 0.000 342.000 0.000 L 284.000 0.000 284.000 90.400 " stroke="none" fill="#e4e4fc" fill-rule="evenodd"></path><path id="path1" d="M0.000 235.800 L 0.000 471.600 56.800 471.600 L 113.600 471.600 113.600 384.800 L 113.600 298.000 149.800 298.000 L 186.000 298.000 186.000 239.400 L 186.000 180.800 149.800 180.800 L 113.600 180.800 113.600 148.400 L 113.600 116.000 162.800 116.000 L 212.000 116.000 212.000 58.000 L 212.000 0.000 106.000 0.000 L 0.000 0.000 0.000 235.800 " stroke="none" fill="#5454dc" fill-rule="evenodd"></path><path id="path2" d="M187.395 239.400 C 187.395 271.740,187.442 284.911,187.500 268.669 C 187.558 252.426,187.558 225.966,187.500 209.869 C 187.442 193.771,187.395 207.060,187.395 239.400 " stroke="none" fill="#c4e8ec" fill-rule="evenodd"></path><path id="path3" d="M186.400 239.400 C 186.400 278.200,186.535 298.000,186.800 298.000 C 187.065 298.000,187.200 278.200,187.200 239.400 C 187.200 200.600,187.065 180.800,186.800 180.800 C 186.535 180.800,186.400 200.600,186.400 239.400 " stroke="none" fill="#78a0ec" fill-rule="evenodd"></path><path id="path4" d="M186.195 239.400 C 186.195 271.740,186.242 284.911,186.300 268.669 C 186.358 252.426,186.358 225.966,186.300 209.869 C 186.242 193.771,186.195 207.060,186.195 239.400 " stroke="none" fill="#7c54ec" fill-rule="evenodd"></path></g></svg>
